<?xml version="1.0"?>
<svg xmlns="http://www.w3.org/2000/svg" id="regular" enable-background="new 0 0 24 24" height="512px" viewBox="0 0 24 24" width="512px"><g><path d="m23.961 15.286c-.089-.267-.32-.46-.598-.503l-3.923-.6-1.761-3.752c-.247-.526-1.11-.526-1.357 0l-1.761 3.752-3.923.6c-.278.042-.509.236-.598.503s-.021.561.175.762l2.86 2.932-.677 4.149c-.046.283.073.568.308.734s.543.183.795.043l3.5-1.935 3.5 1.935c.112.063.237.094.362.094.152 0 .303-.046.432-.137.235-.166.354-.451.308-.734l-.677-4.149 2.86-2.932c.197-.201.264-.495.175-.762zm-4.373 2.918c-.167.17-.242.41-.204.645l.489 2.998-2.511-1.388c-.113-.062-.238-.094-.363-.094s-.25.031-.363.094l-2.511 1.388.489-2.998c.038-.235-.037-.474-.204-.645l-2.105-2.158 2.876-.439c.247-.038.459-.196.565-.422l1.254-2.67 1.252 2.668c.106.226.318.385.565.422l2.876.439z" data-original="#000000" class="active-path" data-old_color="#000000" fill="#4CAF50"/><path d="m3.074 8.98-.677 4.149c-.046.283.073.568.308.734.234.165.543.182.795.043l3.5-1.934 3.5 1.935c.113.062.238.093.363.093.152 0 .303-.046.432-.137.235-.166.354-.451.308-.734l-.677-4.149 2.86-2.932c.196-.201.264-.496.175-.762-.089-.267-.32-.46-.598-.503l-3.923-.6-1.761-3.752c-.247-.526-1.11-.526-1.357 0l-1.762 3.753-3.923.6c-.278.042-.509.236-.598.502-.089.267-.022.561.174.762zm2.108-3.374c.247-.038.46-.196.566-.422l1.252-2.669 1.252 2.668c.106.227.319.385.566.423l2.876.439-2.106 2.159c-.167.17-.242.41-.204.645l.489 2.998-2.511-1.388c-.112-.063-.237-.094-.362-.094s-.25.031-.363.094l-2.511 1.388.489-2.998c.038-.235-.037-.474-.204-.645l-2.105-2.159z" data-original="#000000" class="active-path" data-old_color="#000000" fill="#4CAF50"/></g> </svg>
